<mxfile host="app.diagrams.net" modified="2024-07-05T11:53:55.187Z" agent="Mozilla/5.0 (Windows NT 10.0; Win64; x64) AppleWebKit/537.36 (KHTML, like Gecko) Chrome/126.0.0.0 Safari/537.36" version="24.6.4" etag="9UrHH-p2Pfu5sa0fe3km" type="github">
  <diagram name="PÃ¡gina-1" id="tLSWIg1077CO6g2KAqrR">
    <mxGraphModel>
      <root>
        <mxCell id="0" />
        <mxCell id="1" parent="0" />
      </root>
    </mxGraphModel>
  </diagram>
</mxfile>
